<svg width="8" height="12" viewBox="0 0 8 12" fill="none" xmlns="http://www.w3.org/2000/svg">
<path id="FontAwsome (angle-right)" d="M0.270919 6.63644L5.54025 11.7364C5.71456 11.9047 5.95068 11.9991 6.19685 11.9991C6.44301 11.9991 6.67914 11.9047 6.85345 11.7364L7.72857 10.8894C7.90239 10.7207 8 10.4922 8 10.2539C8 10.0157 7.90239 9.78715 7.72857 9.61844L3.99458 6.00444L7.72754 2.38943C7.90136 2.22073 7.99897 1.99219 7.99897 1.75394C7.99897 1.51568 7.90136 1.28715 7.72754 1.11844L6.85655 0.263435C6.68224 0.0952001 6.44611 0.000732422 6.19995 0.000732422C5.95378 0.000732422 5.71766 0.0952001 5.54335 0.263435L0.274017 5.36344C0.187433 5.44682 0.118672 5.54589 0.0716558 5.655C0.0246401 5.7641 0.000289917 5.8811 1.90735e-06 5.99931C-0.000286102 6.11753 0.0234928 6.23464 0.0699768 6.34396C0.116461 6.45328 0.184742 6.55266 0.270919 6.63644Z" fill="black"/>
</svg>
