<svg width="24" height="24" viewBox="0 0 24 24" fill="none" xmlns="http://www.w3.org/2000/svg">
<g clip-path="url(#clip0_107_834)">
<path d="M20 24H4C1.79 24 0 22.21 0 20V9.33C0 7.99 0.67 6.74 1.78 6L9.78 0.669995C11.12 -0.230005 12.87 -0.230005 14.22 0.669995L22.22 6C23.33 6.74 24 7.99 24 9.33V20C24 22.21 22.21 24 20 24Z" fill="#D9D9D9"/>
<path d="M18 23.9999H16V18.1899C16 15.9799 14.21 14.1899 12 14.1899C9.79 14.1899 8 15.9799 8 18.1899V23.9999H6V18.1899C6 14.8799 8.69 12.1899 12 12.1899C15.31 12.1899 18 14.8799 18 18.1899V23.9999Z" fill="white"/>
</g>
<defs>
<clipPath id="clip0_107_834">
<rect width="24" height="24" fill="white"/>
</clipPath>
</defs>
</svg>
