<svg width="25" height="24" viewBox="0 0 25 24" fill="none" xmlns="http://www.w3.org/2000/svg">
<g clip-path="url(#clip0_326_2606)">
<path d="M20.3333 0H4.33325C2.12411 0 0.333252 1.79086 0.333252 4V20C0.333252 22.2091 2.12411 24 4.33325 24H20.3333C22.5424 24 24.3333 22.2091 24.3333 20V4C24.3333 1.79086 22.5424 0 20.3333 0Z" fill="#FF6B00"/>
<path d="M22.3333 17H19.3333V16.45C19.3333 14.55 17.7833 13 15.8833 13H8.78325C6.88325 13 5.33325 14.55 5.33325 16.45V17H2.33325C1.78325 17 1.33325 17.45 1.33325 18C1.33325 18.55 1.78325 19 2.33325 19H22.3333C22.8833 19 23.3333 18.55 23.3333 18C23.3333 17.45 22.8833 17 22.3333 17ZM7.33325 17V16.45C7.33325 15.65 7.98325 15 8.78325 15H15.8833C16.6833 15 17.3333 15.65 17.3333 16.45V17H7.33325Z" fill="#fff"/>
<path d="M7.33325 4H5.33325C4.78325 4 4.33325 3.55 4.33325 3C4.33325 2.45 4.78325 2 5.33325 2H7.33325C7.88325 2 8.33325 2.45 8.33325 3C8.33325 3.55 7.88325 4 7.33325 4Z" fill="#fff"/>
<path d="M12.3333 12C10.1233 12 8.33325 10.21 8.33325 8C8.33325 5.79 10.1233 4 12.3333 4C14.5433 4 16.3333 5.79 16.3333 8C16.3333 10.21 14.5433 12 12.3333 12ZM12.3333 6C11.2333 6 10.3333 6.9 10.3333 8C10.3333 9.1 11.2333 10 12.3333 10C13.4333 10 14.3333 9.1 14.3333 8C14.3333 6.9 13.4333 6 12.3333 6Z" fill="#fff"/>
</g>
<defs>
<clipPath id="clip0_326_2606">
<rect width="24" height="24" fill="white" transform="translate(0.333252)"/>
</clipPath>
</defs>
</svg>
