
<svg width="24" height="24" viewBox="0 0 24 24" fill="none" xmlns="http://www.w3.org/2000/svg">
<g clip-path="url(#clip0_107_839)">
<path d="M20 0H4C1.79086 0 0 1.79086 0 4V20C0 22.2091 1.79086 24 4 24H20C22.2091 24 24 22.2091 24 20V4C24 1.79086 22.2091 0 20 0Z" fill="#D9D9D9"/>
<path d="M22 17H19V16.45C19 14.55 17.45 13 15.55 13H8.45C6.55 13 5 14.55 5 16.45V17H2C1.45 17 1 17.45 1 18C1 18.55 1.45 19 2 19H22C22.55 19 23 18.55 23 18C23 17.45 22.55 17 22 17ZM7 17V16.45C7 15.65 7.65 15 8.45 15H15.55C16.35 15 17 15.65 17 16.45V17H7Z" fill="white"/>
<path d="M7 4H5C4.45 4 4 3.55 4 3C4 2.45 4.45 2 5 2H7C7.55 2 8 2.45 8 3C8 3.55 7.55 4 7 4Z" fill="white"/>
<path d="M12 12C9.79 12 8 10.21 8 8C8 5.79 9.79 4 12 4C14.21 4 16 5.79 16 8C16 10.21 14.21 12 12 12ZM12 6C10.9 6 10 6.9 10 8C10 9.1 10.9 10 12 10C13.1 10 14 9.1 14 8C14 6.9 13.1 6 12 6Z" fill="white"/>
</g>
<defs>
<clipPath id="clip0_107_839">
<rect width="24" height="24" fill="white"/>
</clipPath>
</defs>
</svg>


