<svg width="30" height="28" viewBox="0 0 30 28" fill="none" xmlns="http://www.w3.org/2000/svg">
<g clip-path="url(#clip0_129_34503)">
<path d="M30 28L24.9777 22.3405C28.4097 20.1035 30.4396 16.4454 29.9195 12.6475C29.1605 7.1084 23.2645 3.35752 16.7214 4.23014L13.239 8.15416C13.9202 7.85913 14.656 7.64859 15.4328 7.53917C19.692 6.93803 23.5757 9.5919 24.1068 13.4674C24.6378 17.3416 21.6141 20.9692 17.3549 21.5703C16.6518 21.6701 15.9611 21.6784 15.2922 21.6091L12.106 23.4749C14.2396 24.4084 16.7583 24.7824 19.378 24.4126C20.4824 24.2574 21.5349 23.9777 22.5178 23.5967L30 27.9986V28Z" fill="#FF6B00"/>
<path d="M0.154259 28L10.4132 16.4385L0 10.3385L17.6483 0L8.94157 9.81212L20.0496 16.2944L0.154259 28Z" fill="#FF6B00"/>
</g>
<defs>
<clipPath id="clip0_129_34503">
<rect width="30" height="28" fill="white"/>
</clipPath>
</defs>
</svg>
