<svg width="85" height="20" viewBox="0 0 85 20" fill="none" xmlns="http://www.w3.org/2000/svg">
<g id="Layer_1" clip-path="url(#clip0_79_332)">
<g id="Group">
<path id="Vector" d="M48.9173 19.9999L45.3021 15.9584C47.7728 14.3601 49.2337 11.7479 48.8595 9.03596C48.312 5.08028 44.0696 2.39884 39.3594 3.02488L36.853 5.8282C37.3428 5.61768 37.8738 5.46809 38.4323 5.38776C41.4972 4.9584 44.2924 6.85313 44.6749 9.62045C45.0573 12.3878 42.881 14.9806 39.8161 15.4072C39.3099 15.4792 38.8119 15.4847 38.3305 15.4349L36.0387 16.7673C37.5739 17.4349 39.3869 17.7008 41.2743 17.4376C42.0694 17.3268 42.826 17.1274 43.5331 16.8559L48.92 19.9999H48.9173Z" fill="#FF6B00"/>
<path id="Vector_2" d="M27.4355 20L34.8199 11.7424L27.3227 7.38504L40.028 0L33.7579 7.00831L41.7558 11.6399L27.4355 20Z" fill="#FF6B00"/>
</g>
<g id="Group_2">
<path id="Vector_3" d="M5.46949 16.7396C2.35507 16.7396 0 14.5208 0 10.6953C0 6.86984 2.35507 4.651 5.46949 4.651C8.58391 4.651 10.9252 6.85322 10.9252 10.6953C10.9252 14.5374 8.5619 16.7396 5.46949 16.7396ZM5.46949 14.579C7.26881 14.5707 8.46286 13.205 8.45461 10.6953C8.46286 8.17732 7.26881 6.81998 5.46949 6.81167C3.65367 6.81998 2.46788 8.17732 2.46788 10.6953C2.46788 13.2133 3.65367 14.5707 5.46949 14.579Z" fill="#FF6B00"/>
<path id="Vector_4" d="M22.4117 16.5762H20.3153L15.1842 9.1025H15.0879V16.5762H12.6668V4.81165H14.7962L19.8971 12.2853H20.0099V4.81165H22.4145V16.5762H22.4117Z" fill="#FF6B00"/>
</g>
<g id="Group_3">
<path id="Vector_5" d="M61.3475 4.81165V12.4488C61.3475 15.0249 59.4023 16.7452 56.5053 16.7369C53.5999 16.7452 51.6796 15.0222 51.6796 12.4488V4.81165H54.1007V12.2521C54.1089 13.6094 55.0609 14.5845 56.5053 14.5928C57.9662 14.5845 58.9181 13.6094 58.9099 12.2521V4.81165H61.3475Z" fill="#FF6B00"/>
<path id="Vector_6" d="M62.6516 16.5762L66.7014 4.81165H69.8158L73.8492 16.5762H71.252L70.3716 13.8615H66.1429L65.2625 16.5762H62.6488H62.6516ZM69.7608 11.9612L68.2999 7.45984H68.2201L66.7592 11.9612H69.7608Z" fill="#FF6B00"/>
<path id="Vector_7" d="M75.1725 16.5762V4.81165H79.3352C82.854 4.81165 85.0082 7.01386 85 10.6759C85.0082 14.3574 82.854 16.5734 79.2884 16.5734H75.1725V16.5762ZM79.1921 14.4792C81.4179 14.4792 82.5816 13.3186 82.5816 10.6759C82.5816 8.03325 81.4206 6.90583 79.2086 6.90583H77.5936V14.4765H79.1921V14.4792Z" fill="#FF6B00"/>
</g>
</g>
<defs>
<clipPath id="clip0_79_332">
<rect width="85" height="20" fill="white"/>
</clipPath>
</defs>
</svg>
