<svg width="25" height="24" viewBox="0 0 25 24" fill="none" xmlns="http://www.w3.org/2000/svg">
<g clip-path="url(#clip0_326_2156)">
<path d="M17.7866 6.88C18.9166 8.01 18.9566 9.83 17.8866 11C17.8566 11.04 17.8266 11.08 17.7866 11.12C16.6166 12.29 14.7166 12.29 13.5466 11.12C13.5066 11.08 13.4766 11.04 13.4466 11C12.3766 9.83 12.4166 8.01 13.5466 6.88C14.1266 6.29 14.8966 6 15.6666 6C16.4366 6 17.2066 6.29 17.7866 6.88Z" fill="#FF6B00"/>
<path d="M20.6666 0H4.66663C2.45663 0 0.666626 1.79 0.666626 4V20C0.666626 22.21 2.45663 24 4.66663 24H20.6666C22.8766 24 24.6666 22.21 24.6666 20V4C24.6666 1.79 22.8766 0 20.6666 0ZM22.6666 13H21.0766L22.5566 14.48C22.9466 14.87 22.9466 15.5 22.5566 15.89C22.3666 16.09 22.1066 16.19 21.8566 16.19C21.6066 16.19 21.3466 16.09 21.1466 15.89L18.4266 13.17C17.5966 13.72 16.6266 14 15.6666 14C14.6066 14 13.5466 13.67 12.6666 13H2.66663C2.11663 13 1.66663 12.55 1.66663 12C1.66663 11.45 2.11663 11 2.66663 11H11.0866C10.2966 9.17 10.6366 6.96 12.1266 5.46C14.0766 3.51 17.2566 3.52 19.2066 5.46C20.1766 6.44 20.6666 7.72 20.6666 9C20.6666 9.68 20.5266 10.37 20.2466 11H22.6666C23.2166 11 23.6666 11.45 23.6666 12C23.6666 12.55 23.2166 13 22.6666 13Z" fill="#FF6B00"/>
<path d="M23.6666 12C23.6666 11.45 23.2166 11 22.6666 11H20.2466C20.5266 10.37 20.6666 9.67997 20.6666 8.99997C20.6666 7.71997 20.1766 6.43997 19.2066 5.45997C17.2566 3.51997 14.0766 3.50997 12.1266 5.45997C10.6366 6.95997 10.2966 9.16997 11.0866 11H2.66663C2.11663 11 1.66663 11.45 1.66663 12C1.66663 12.55 2.11663 13 2.66663 13H12.6666C13.5466 13.67 14.6066 14 15.6666 14C16.6266 14 17.5966 13.72 18.4266 13.17L21.1466 15.89C21.3466 16.09 21.5966 16.19 21.8566 16.19C22.1166 16.19 22.3666 16.09 22.5566 15.89C22.9466 15.5 22.9466 14.87 22.5566 14.48L21.0766 13H22.6666C23.2166 13 23.6666 12.55 23.6666 12ZM17.8866 11C17.8866 11 17.8266 11.08 17.7866 11.12C16.6166 12.29 14.7166 12.29 13.5466 11.12C13.5066 11.08 13.4766 11.04 13.4466 11C12.3766 9.82997 12.4166 8.00997 13.5466 6.87997C14.1266 6.28997 14.8966 5.99997 15.6666 5.99997C16.4366 5.99997 17.2066 6.28997 17.7866 6.87997C18.9166 8.00997 18.9566 9.82997 17.8866 11Z" fill="#fff"/>
<path d="M7.66663 9H5.66663C5.11663 9 4.66663 8.55 4.66663 8C4.66663 7.45 5.11663 7 5.66663 7H7.66663C8.21663 7 8.66663 7.45 8.66663 8C8.66663 8.55 8.21663 9 7.66663 9Z" fill="#fff"/>
<path d="M10.6666 17H5.66663C5.11663 17 4.66663 16.55 4.66663 16C4.66663 15.45 5.11663 15 5.66663 15H10.6666C11.2166 15 11.6666 15.45 11.6666 16C11.6666 16.55 11.2166 17 10.6666 17Z" fill="#fff"/>
<path d="M19.6666 21H5.66663C5.11663 21 4.66663 20.55 4.66663 20C4.66663 19.45 5.11663 19 5.66663 19H19.6666C20.2166 19 20.6666 19.45 20.6666 20C20.6666 20.55 20.2166 21 19.6666 21Z" fill="#fff"/>
</g>
<defs>
<clipPath id="clip0_326_2156">
<rect width="24" height="24" fill="white" transform="translate(0.666626)"/>
</clipPath>
</defs>
</svg>
