<svg width="24" height="24" viewBox="0 0 24 24" fill="none" xmlns="http://www.w3.org/2000/svg">
<g clip-path="url(#clip0_107_825)">
<path d="M17.12 6.88C18.25 8.01 18.29 9.83 17.22 11C17.19 11.04 17.16 11.08 17.12 11.12C15.95 12.29 14.05 12.29 12.88 11.12C12.84 11.08 12.81 11.04 12.78 11C11.71 9.83 11.75 8.01 12.88 6.88C13.46 6.29 14.23 6 15 6C15.77 6 16.54 6.29 17.12 6.88Z" fill="#D9D9D9"/>
<path d="M20 0H4C1.79 0 0 1.79 0 4V20C0 22.21 1.79 24 4 24H20C22.21 24 24 22.21 24 20V4C24 1.79 22.21 0 20 0ZM22 13H20.41L21.89 14.48C22.28 14.87 22.28 15.5 21.89 15.89C21.7 16.09 21.44 16.19 21.19 16.19C20.94 16.19 20.68 16.09 20.48 15.89L17.76 13.17C16.93 13.72 15.96 14 15 14C13.94 14 12.88 13.67 12 13H2C1.45 13 1 12.55 1 12C1 11.45 1.45 11 2 11H10.42C9.63 9.17 9.97 6.96 11.46 5.46C13.41 3.51 16.59 3.52 18.54 5.46C19.51 6.44 20 7.72 20 9C20 9.68 19.86 10.37 19.58 11H22C22.55 11 23 11.45 23 12C23 12.55 22.55 13 22 13Z" fill="#D9D9D9"/>
<path d="M23 12C23 11.45 22.55 11 22 11H19.58C19.86 10.37 20 9.67997 20 8.99997C20 7.71997 19.51 6.43997 18.54 5.45997C16.59 3.51997 13.41 3.50997 11.46 5.45997C9.97 6.95997 9.63 9.16997 10.42 11H2C1.45 11 1 11.45 1 12C1 12.55 1.45 13 2 13H12C12.88 13.67 13.94 14 15 14C15.96 14 16.93 13.72 17.76 13.17L20.48 15.89C20.68 16.09 20.93 16.19 21.19 16.19C21.45 16.19 21.7 16.09 21.89 15.89C22.28 15.5 22.28 14.87 21.89 14.48L20.41 13H22C22.55 13 23 12.55 23 12ZM17.22 11C17.22 11 17.16 11.08 17.12 11.12C15.95 12.29 14.05 12.29 12.88 11.12C12.84 11.08 12.81 11.04 12.78 11C11.71 9.82997 11.75 8.00997 12.88 6.87997C13.46 6.28997 14.23 5.99997 15 5.99997C15.77 5.99997 16.54 6.28997 17.12 6.87997C18.25 8.00997 18.29 9.82997 17.22 11Z" fill="white"/>
<path d="M7 9H5C4.45 9 4 8.55 4 8C4 7.45 4.45 7 5 7H7C7.55 7 8 7.45 8 8C8 8.55 7.55 9 7 9Z" fill="white"/>
<path d="M10 17H5C4.45 17 4 16.55 4 16C4 15.45 4.45 15 5 15H10C10.55 15 11 15.45 11 16C11 16.55 10.55 17 10 17Z" fill="white"/>
<path d="M19 21H5C4.45 21 4 20.55 4 20C4 19.45 4.45 19 5 19H19C19.55 19 20 19.45 20 20C20 20.55 19.55 21 19 21Z" fill="white"/>
</g>
<defs>
<clipPath id="clip0_107_825">
<rect width="24" height="24" fill="white"/>
</clipPath>
</defs>
</svg>
