<svg width="74" height="69" viewBox="0 0 74 69" fill="none" xmlns="http://www.w3.org/2000/svg">
  <path d="M73.9906 68.6883L61.6039 54.8078C70.0691 49.3184 75.0746 40.347 73.7926 31.033C71.9167 17.4474 57.3807 8.23816 41.2422 10.3883L32.6545 20.0161C34.3325 19.2931 36.1518 18.7794 38.0654 18.5035C48.5668 17.0288 58.1443 23.5362 59.4546 33.0404C60.7649 42.5446 53.3084 51.4495 42.8071 52.9146C41.0725 53.1619 39.3663 53.181 37.7166 53.0097L29.8642 57.5858C35.1243 59.8786 41.3365 60.792 47.8032 59.8881C50.5275 59.5076 53.1199 58.8226 55.5425 57.8903L74 68.6883H73.9906Z" fill="#FF6B00"/>
  <path d="M0.386498 68.6891L25.6877 40.3287L0 25.3636L43.5325 0L22.049 24.0697L49.4525 39.9767L0.386498 68.6891Z" fill="#FF6B00"/>
</svg>
